<svg width="448" height="223" viewBox="0 0 448 223" fill="none" xmlns="http://www.w3.org/2000/svg">
<path d="M17 72H7C4.23858 72 2 74.2386 2 77V87C2 89.7614 4.23858 92 7 92H17C19.7614 92 22 89.7614 22 87V77C22 74.2386 19.7614 72 17 72Z" stroke="white" stroke-width="2" stroke-linecap="round" stroke-linejoin="round"/>
<path d="M16 81.3698C16.1234 82.202 15.9812 83.052 15.5937 83.7988C15.2062 84.5456 14.5931 85.1512 13.8416 85.5295C13.0901 85.9077 12.2384 86.0394 11.4077 85.9057C10.5771 85.7721 9.80971 85.3799 9.21479 84.785C8.61987 84.19 8.22768 83.4227 8.09402 82.592C7.96035 81.7613 8.09202 80.9097 8.47028 80.1582C8.84854 79.4067 9.45414 78.7936 10.2009 78.4061C10.9477 78.0186 11.7977 77.8764 12.63 77.9998C13.4789 78.1257 14.2648 78.5213 14.8716 79.1281C15.4785 79.735 15.8741 80.5209 16 81.3698Z" stroke="white" stroke-width="2" stroke-linecap="round" stroke-linejoin="round"/>
<path d="M17.5 76.5H17.51" stroke="white" stroke-width="2" stroke-linecap="round" stroke-linejoin="round"/>
<path d="M86 72H83C81.6739 72 80.4021 72.5268 79.4645 73.4645C78.5268 74.4021 78 75.6739 78 77V80H75V84H78V92H82V84H85L86 80H82V77C82 76.7348 82.1054 76.4804 82.2929 76.2929C82.4804 76.1054 82.7348 76 83 76H86V72Z" stroke="white" stroke-width="2" stroke-linecap="round" stroke-linejoin="round"/>
<path d="M57 72.9998C56.0424 73.6753 54.9821 74.1919 53.86 74.5298C53.2577 73.8373 52.4573 73.3465 51.567 73.1237C50.6767 72.901 49.7395 72.957 48.8821 73.2843C48.0247 73.6115 47.2884 74.1942 46.773 74.9535C46.2575 75.7128 45.9877 76.6121 46 77.5298V78.5298C44.2426 78.5754 42.5013 78.1856 40.931 77.3952C39.3607 76.6049 38.0103 75.4384 37 73.9998C37 73.9998 33 82.9998 42 86.9998C39.9405 88.3978 37.4872 89.0987 35 88.9998C44 93.9998 55 88.9998 55 77.4998C55 77.2198 54.97 76.9398 54.92 76.6698C55.9406 75.6633 56.6608 74.3925 57 72.9998Z" stroke="white" stroke-width="2" stroke-linecap="round" stroke-linejoin="round"/>
<g clip-path="url(#clip0_2_278)">
<path d="M17.465 36.4338C14.0024 36.4338 11.0297 35.7019 8.547 34.2383C6.06434 32.7422 4.15334 30.6768 2.814 28.0422C1.47466 25.3752 0.805 22.3016 0.805 18.8213C0.805 15.3411 1.47466 12.2675 2.814 9.60042C4.15334 6.93335 6.06434 4.85173 8.547 3.35557C11.0297 1.85941 14.0024 1.11133 17.465 1.11133C21.581 1.11133 24.9456 2.13587 27.559 4.18496C30.205 6.20154 31.8546 9.04748 32.508 12.7228H25.599C25.1744 10.8689 24.2596 9.42154 22.855 8.38072C21.483 7.30739 19.6536 6.77072 17.367 6.77072C14.1984 6.77072 11.7157 7.84406 9.919 9.99072C8.12234 12.1374 7.224 15.081 7.224 18.8213C7.224 22.5617 8.12234 25.5053 9.919 27.6519C11.7157 29.7661 14.1984 30.8231 17.367 30.8231C19.6536 30.8231 21.483 30.3353 22.855 29.3595C24.2596 28.3513 25.1744 26.9689 25.599 25.2125H32.508C31.8546 28.7253 30.205 31.4737 27.559 33.4577C24.9456 35.4417 21.581 36.4338 17.465 36.4338ZM45.312 36.4338C43.2212 36.4338 41.5062 36.1085 40.167 35.458C38.8276 34.775 37.8312 33.8805 37.178 32.7747C36.5246 31.6688 36.198 30.4492 36.198 29.1156C36.198 26.8713 37.08 25.0499 38.844 23.6513C40.608 22.2528 43.254 21.5534 46.782 21.5534H52.956V20.968C52.956 19.3092 52.4822 18.0895 51.535 17.3089C50.5876 16.5283 49.4116 16.138 48.007 16.138C46.733 16.138 45.6222 16.447 44.675 17.065C43.7276 17.6504 43.1396 18.5286 42.911 19.6995H36.786C36.9492 17.9431 37.5372 16.4144 38.55 15.1134C39.5952 13.8124 40.9346 12.8204 42.568 12.1374C44.2012 11.4218 46.0306 11.0641 48.056 11.0641C51.5186 11.0641 54.2462 11.926 56.239 13.6498C58.2316 15.3737 59.228 17.8131 59.228 20.968V35.8483H53.887L53.299 31.9453C52.5802 33.2462 51.5676 34.3196 50.261 35.1653C48.987 36.011 47.3372 36.4338 45.312 36.4338ZM46.733 31.555C48.5296 31.555 49.918 30.9695 50.898 29.7986C51.9106 28.6277 52.5476 27.1804 52.809 25.4565H47.468C45.802 25.4565 44.6096 25.7655 43.891 26.3834C43.1722 26.9689 42.813 27.7007 42.813 28.5789C42.813 29.5222 43.1722 30.254 43.891 30.7744C44.6096 31.2947 45.557 31.555 46.733 31.555ZM74.2783 36.4338C72.1223 36.4338 70.2275 36.0922 68.5943 35.4092C66.9609 34.6937 65.6543 33.7179 64.6743 32.4819C63.6943 31.2459 63.1063 29.8149 62.9103 28.1886H69.2313C69.4273 29.1319 69.9499 29.945 70.7993 30.628C71.6813 31.2785 72.8083 31.6038 74.1803 31.6038C75.5523 31.6038 76.5485 31.3273 77.1693 30.7744C77.8225 30.2214 78.1493 29.5871 78.1493 28.8716C78.1493 27.8308 77.6919 27.1316 76.7773 26.7738C75.8625 26.3834 74.5885 26.0095 72.9553 25.6516C71.9099 25.424 70.8483 25.1474 69.7703 24.8222C68.6923 24.497 67.6959 24.0904 66.7813 23.6025C65.8993 23.0822 65.1805 22.4316 64.6253 21.651C64.0699 20.8379 63.7923 19.8459 63.7923 18.675C63.7923 16.5283 64.6415 14.7231 66.3403 13.2595C68.0715 11.7959 70.4889 11.0641 73.5923 11.0641C76.4669 11.0641 78.7535 11.7308 80.4523 13.0644C82.1835 14.3979 83.2125 16.2356 83.5393 18.5774H77.6103C77.2509 16.7885 75.8953 15.8941 73.5433 15.8941C72.3673 15.8941 71.4525 16.1217 70.7993 16.5771C70.1785 17.0325 69.8683 17.6016 69.8683 18.2847C69.8683 19.0002 70.3419 19.5695 71.2893 19.9922C72.2365 20.415 73.4943 20.8053 75.0623 21.1631C76.7609 21.5534 78.3125 21.9925 79.7173 22.4804C81.1545 22.9358 82.2979 23.635 83.1473 24.5783C83.9965 25.489 84.4213 26.8062 84.4213 28.5301C84.4539 30.0262 84.0619 31.3761 83.2453 32.5795C82.4285 33.7829 81.2525 34.7262 79.7173 35.4092C78.1819 36.0922 76.3689 36.4338 74.2783 36.4338ZM99.0608 35.8483C96.5128 35.8483 94.471 35.2304 92.9358 33.9944C91.4004 32.7584 90.6328 30.5629 90.6328 27.408V16.8698H86.4678V11.6495H90.6328L91.3678 5.16072H96.9048V11.6495H103.471V16.8698H96.9048V27.4568C96.9048 28.6277 97.1498 29.4408 97.6398 29.8962C98.1624 30.319 99.0444 30.5304 100.286 30.5304H103.324V35.8483H99.0608ZM116.255 36.4338C114.164 36.4338 112.449 36.1085 111.11 35.458C109.77 34.775 108.774 33.8805 108.121 32.7747C107.467 31.6688 107.141 30.4492 107.141 29.1156C107.141 26.8713 108.023 25.0499 109.787 23.6513C111.551 22.2528 114.197 21.5534 117.725 21.5534H123.899V20.968C123.899 19.3092 123.425 18.0895 122.478 17.3089C121.53 16.5283 120.354 16.138 118.95 16.138C117.676 16.138 116.565 16.447 115.618 17.065C114.67 17.6504 114.082 18.5286 113.854 19.6995H107.729C107.892 17.9431 108.48 16.4144 109.493 15.1134C110.538 13.8124 111.877 12.8204 113.511 12.1374C115.144 11.4218 116.973 11.0641 118.999 11.0641C122.461 11.0641 125.189 11.926 127.182 13.6498C129.174 15.3737 130.171 17.8131 130.171 20.968V35.8483H124.83L124.242 31.9453C123.523 33.2462 122.51 34.3196 121.204 35.1653C119.93 36.011 118.28 36.4338 116.255 36.4338ZM117.676 31.555C119.472 31.555 120.861 30.9695 121.841 29.7986C122.853 28.6277 123.49 27.1804 123.752 25.4565H118.411C116.745 25.4565 115.552 25.7655 114.834 26.3834C114.115 26.9689 113.756 27.7007 113.756 28.5789C113.756 29.5222 114.115 30.254 114.834 30.7744C115.552 31.2947 116.5 31.555 117.676 31.555ZM139.69 35.8483L132.585 11.6495H138.808L143.021 29.0668L147.921 11.6495H154.879L159.779 29.0668L164.042 11.6495H170.265L163.111 35.8483H156.594L151.4 17.748L146.206 35.8483H139.69ZM180.377 36.4338C178.287 36.4338 176.572 36.1085 175.232 35.458C173.894 34.775 172.897 33.8805 172.243 32.7747C171.591 31.6688 171.263 30.4492 171.263 29.1156C171.263 26.8713 172.145 25.0499 173.909 23.6513C175.673 22.2528 178.319 21.5534 181.847 21.5534H188.021V20.968C188.021 19.3092 187.548 18.0895 186.6 17.3089C185.654 16.5283 184.478 16.138 183.072 16.138C181.798 16.138 180.688 16.447 179.74 17.065C178.794 17.6504 178.206 18.5286 177.976 19.6995H171.851C172.015 17.9431 172.603 16.4144 173.615 15.1134C174.661 13.8124 176.001 12.8204 177.633 12.1374C179.267 11.4218 181.097 11.0641 183.121 11.0641C186.585 11.0641 189.312 11.926 191.304 13.6498C193.298 15.3737 194.293 17.8131 194.293 20.968V35.8483H188.952L188.364 31.9453C187.646 33.2462 186.634 34.3196 185.326 35.1653C184.052 36.011 182.403 36.4338 180.377 36.4338ZM181.798 31.555C183.596 31.555 184.983 30.9695 185.963 29.7986C186.977 28.6277 187.614 27.1804 187.874 25.4565H182.533C180.867 25.4565 179.676 25.7655 178.956 26.3834C178.238 26.9689 177.878 27.7007 177.878 28.5789C177.878 29.5222 178.238 30.254 178.956 30.7744C179.676 31.2947 180.622 31.555 181.798 31.555ZM201.523 46.5816L207.158 34.2383H205.688L196.231 11.6495H203.042L209.853 28.6765L216.958 11.6495H223.622L208.187 46.5816H201.523Z" fill="white"/>
</g>
<defs>
<clipPath id="clip0_2_278">
<rect width="224" height="46" fill="white" transform="translate(0 1)"/>
</clipPath>
</defs>
</svg>
